<svg width="31" height="31" viewBox="0 0 31 31" fill="none" xmlns="http://www.w3.org/2000/svg">
<path d="M1.04141 2.47637C0.272462 2.74278 -0.181639 3.62676 0.0726577 4.37149C0.12715 4.52285 1.8043 7.0961 3.80235 10.0932L7.43516 15.5424L3.78418 21.0279C1.71348 24.1279 0.102931 26.6104 0.066603 26.7436C-0.0847642 27.2885 0.0605483 27.8516 0.454103 28.2451C0.914259 28.7113 0.883986 28.7053 3.97188 28.6871L6.70254 28.6689L6.99922 28.4873C7.27774 28.3178 7.56231 27.9061 11.3041 22.3115C13.508 19.0117 15.3547 16.1963 15.4031 16.051C15.5182 15.7361 15.5242 15.4395 15.4334 15.1125C15.3426 14.7734 7.45938 2.97891 7.1627 2.73067C6.73281 2.37949 6.59961 2.36133 3.85078 2.36133C1.59844 2.36738 1.33203 2.37344 1.04141 2.47637Z" fill="#5ED3F3"/>
<path d="M16.5414 2.47637C15.7725 2.74278 15.3184 3.62676 15.5727 4.37149C15.6271 4.52286 17.3043 7.0961 19.3023 10.0932L22.9352 15.5424L19.2842 21.0279C17.2135 24.1279 15.6029 26.6104 15.5666 26.7436C15.4152 27.2885 15.5605 27.8516 15.9541 28.2451C16.4143 28.7113 16.384 28.7053 19.4719 28.6871L22.2025 28.6689L22.4992 28.4873C22.7777 28.3178 23.0623 27.9061 26.8041 22.3115C29.008 19.0117 30.8547 16.1963 30.9031 16.051C31.0182 15.7361 31.0242 15.4395 30.9334 15.1125C30.8426 14.7734 22.9594 2.97891 22.6627 2.73067C22.2328 2.3795 22.0996 2.36133 19.3508 2.36133C17.0984 2.36739 16.832 2.37344 16.5414 2.47637Z" fill="#5ED3F3"/>
</svg>
