<svg width="31" height="31" viewBox="0 0 31 31" fill="none" xmlns="http://www.w3.org/2000/svg">
<path d="M3.4209 5.86699C2.87598 6.00019 2.37949 6.41191 2.11914 6.93261L1.96777 7.23535V15.5V23.7646L2.10703 24.0371C2.31895 24.473 2.56113 24.7273 2.97891 24.9514L3.36035 25.1572H15.5H27.6396L27.9484 24.9937C28.4086 24.7516 28.5963 24.5699 28.8264 24.1461L29.0322 23.7646V15.5V7.23535L28.8264 6.8539C28.6023 6.43613 28.348 6.19394 27.9121 5.98203L27.6396 5.84277L15.6211 5.83066C9.00937 5.83066 3.52383 5.84277 3.4209 5.86699ZM27.125 7.98613V8.22226L21.3428 12.5574C18.1641 14.943 15.5363 16.8926 15.5 16.8926C15.4637 16.8926 12.8359 14.943 9.65723 12.5574L3.875 8.22226V7.98613V7.75H15.5H27.125V7.98613ZM14.7553 18.7453C14.8824 18.7998 15.1549 18.8543 15.3547 18.8725C16.1055 18.9391 15.8936 19.0783 21.7666 14.6766L27.125 10.6562V16.9531V23.25H15.5H3.875V16.9531V10.6562L9.20312 14.6523C12.1336 16.8502 14.6342 18.6908 14.7553 18.7453Z" fill="#5ED3F3"/>
</svg>
