<svg width="29" height="29" viewBox="0 0 29 29" fill="none" xmlns="http://www.w3.org/2000/svg">
<g clip-path="url(#clip0_10_2)">
<path d="M8.07129 0.407816C7.96934 0.634379 7.82774 0.979886 7.76543 1.17813C7.49356 1.97676 7.46524 2.22032 7.43692 4.04414L7.4086 5.78867L7.07442 6.42305C6.4627 7.59551 6.20781 8.61504 6.21348 9.91211C6.21914 12.5572 7.65215 14.9701 10.2236 16.6693C10.7787 17.0318 11.7643 17.5303 12.3477 17.7342C12.5516 17.8021 12.7272 17.8701 12.7385 17.8758C12.7498 17.8871 12.6422 18.0174 12.5006 18.1646C12.1438 18.5385 12.0531 18.6688 11.8152 19.0936C11.4754 19.7166 11.1582 20.8211 11.1582 21.3875V21.5801H10.3822C9.12481 21.5744 9.03985 21.5064 8.35449 19.9375C8.09395 19.3428 7.81074 18.748 7.72578 18.6291C7.4709 18.2553 6.91016 17.7795 6.49668 17.5813C5.9586 17.3264 5.50547 17.2641 4.32168 17.2867C3.37012 17.3037 3.29649 17.315 2.99629 17.451C2.56582 17.6549 2.24297 17.9607 2.05606 18.3402C1.83516 18.7934 1.82949 19.4221 2.04473 19.8865C2.37324 20.5832 2.88867 20.9061 3.74395 20.957C4.31035 20.991 4.52559 21.0703 4.64453 21.2912C4.67285 21.3535 4.8541 21.8123 5.03535 22.3107C5.22227 22.8148 5.46582 23.3982 5.5791 23.6135C6.01524 24.4348 6.70059 25.0861 7.56153 25.4883C8.28086 25.8225 8.60938 25.8848 9.9291 25.9244L11.1016 25.9584V27.482V29H16.6807H22.2598V25.3297C22.2598 23.3133 22.2314 21.4158 22.2031 21.1156C22.1012 20.0508 21.6367 19.0029 20.9514 18.2666C20.7588 18.0627 20.6115 17.8871 20.6229 17.8758C20.6342 17.8701 20.8098 17.8021 21.0137 17.7342C22.8998 17.0715 24.7689 15.6498 25.8281 14.0639C26.7457 12.6932 27.1479 11.4301 27.1479 9.88379C27.1479 8.5584 26.927 7.68047 26.2813 6.40039L25.9471 5.74903L25.9244 4.02149C25.8904 1.96543 25.8225 1.56328 25.2844 0.402152L25.0918 -0.0169884L24.1459 0.016996C23.0697 0.0509804 22.7072 0.124613 21.9936 0.453129C21.3988 0.730668 21.0703 0.951566 20.6342 1.37637C20.3397 1.66524 20.266 1.71055 20.1244 1.68223C20.0395 1.6709 19.6656 1.59161 19.3031 1.51231C18.3063 1.29707 17.4566 1.22911 16.2559 1.26309C15.208 1.29141 14.6416 1.36504 13.6674 1.59727L13.152 1.71621L12.7895 1.3877C11.7133 0.402152 10.6258 3.8147e-06 9.02285 3.8147e-06H8.26387L8.07129 0.407816ZM10.4785 1.41036C11.0563 1.6086 11.532 1.92578 12.1947 2.54883L12.8064 3.13223L13.2992 2.98496C14.6133 2.58282 15.5082 2.46953 17.0205 2.50918C18.3006 2.54317 18.9746 2.64512 20.0621 2.9793L20.5662 3.13223L20.974 2.74141C22.1068 1.63692 22.6789 1.33672 23.7721 1.26309L24.2988 1.22911L24.3895 1.45C24.633 2.0334 24.6953 2.61114 24.6953 4.42364V6.1625L24.8992 6.4627C25.5902 7.47657 26.0037 8.99453 25.9188 10.201C25.6922 13.5031 22.9734 16.1539 18.8727 17.0828L18.176 17.2414L19.2238 18.2893C20.3566 19.4277 20.5775 19.7279 20.8324 20.4756L20.9854 20.9287L21.0023 24.3385L21.0193 27.7539H16.6863H12.3477V26.7061C12.3477 25.5619 12.3137 25.3807 12.0191 25.0748C11.702 24.7406 11.6397 24.7293 10.167 24.6896C8.90391 24.6613 8.7793 24.65 8.40547 24.5141C7.70313 24.2648 7.07442 23.7607 6.72324 23.166C6.64395 23.0244 6.39473 22.424 6.16817 21.835C5.7377 20.7021 5.57344 20.3963 5.24492 20.1414C4.91641 19.8922 4.6502 19.8072 4.07246 19.7676C3.48906 19.7223 3.29082 19.643 3.1832 19.3938C3.03594 19.0766 3.14356 18.7707 3.45508 18.6064C3.67598 18.4932 5.3582 18.4875 5.73203 18.6008C6.0832 18.7027 6.47969 18.9859 6.67793 19.2748C6.76856 19.4107 7.02344 19.9488 7.25 20.4756C7.73145 21.6254 7.84473 21.8293 8.16758 22.1295C8.77363 22.6846 9.23242 22.8262 10.4559 22.8262C11.3564 22.8262 11.5773 22.7865 11.8775 22.5656C12.1777 22.3391 12.2967 22.0842 12.3816 21.4498C12.4836 20.7248 12.6422 20.1924 12.9027 19.6826C13.0783 19.3541 13.2879 19.1162 14.1545 18.2609L15.1967 17.2414L14.4094 17.0488C13.3729 16.8053 12.7272 16.59 12.0361 16.2615C8.4961 14.5793 6.75723 11.3564 7.68047 8.16758C7.85606 7.57285 8.07696 7.08008 8.39981 6.58164L8.65469 6.18516L8.67735 4.26504C8.7 2.52618 8.71133 2.31094 8.82461 1.91446C9.02285 1.20078 8.98887 1.22911 9.59492 1.25743C9.90645 1.27442 10.2576 1.33672 10.4785 1.41036Z" fill="#5ED3F3"/>
</g>
<defs>
<clipPath id="clip0_10_2">
<rect width="29" height="29" fill="white"/>
</clipPath>
</defs>
</svg>
