<svg width="64" height="64" viewBox="0 0 64 64" fill="none" xmlns="http://www.w3.org/2000/svg">
<path fill-rule="evenodd" clip-rule="evenodd" d="M24.781 3.44771C25.2811 2.94763 25.9594 2.66667 26.6667 2.66667H48C52.4184 2.66667 56 6.2484 56 10.6667V24C56 25.4728 54.8061 26.6667 53.3333 26.6667C51.8605 26.6667 50.6667 25.4728 50.6667 24V10.6667C50.6667 9.19392 49.4728 8 48 8H29.3333V21.3333C29.3333 22.8061 28.1395 24 26.6667 24H13.3333V53.3333C13.3333 54.8061 14.5273 56 16 56H18.6667C20.1394 56 21.3333 57.1939 21.3333 58.6667C21.3333 60.1395 20.1394 61.3333 18.6667 61.3333H16C11.5817 61.3333 8 57.7517 8 53.3333V21.3333C8 20.6261 8.28096 19.9478 8.78104 19.4477L24.781 3.44771ZM17.1046 18.6667H24V11.7712L17.1046 18.6667ZM42.6667 39.3333C42.6667 35.2832 45.9499 32 50 32H56C57.4728 32 58.6667 33.1939 58.6667 34.6667C58.6667 36.1395 57.4728 37.3333 56 37.3333H50C48.8955 37.3333 48 38.2288 48 39.3333C48 40.4379 48.8955 41.3333 50 41.3333H51.3333C55.3835 41.3333 58.6667 44.6165 58.6667 48.6667C58.6667 52.7168 55.3835 56 51.3333 56H45.3333C43.8605 56 42.6667 54.8061 42.6667 53.3333C42.6667 51.8605 43.8605 50.6667 45.3333 50.6667H51.3333C52.4379 50.6667 53.3333 49.7712 53.3333 48.6667C53.3333 47.5621 52.4379 46.6667 51.3333 46.6667H50C45.9499 46.6667 42.6667 43.3835 42.6667 39.3333ZM40 34.6667C40 33.1939 38.8061 32 37.3333 32C35.8605 32 34.6667 33.1939 34.6667 34.6667V48C34.6667 49.4728 33.4728 50.6667 32 50.6667C30.5272 50.6667 29.3333 49.4728 29.3333 48V47.1112C29.3333 45.6384 28.1395 44.4445 26.6667 44.4445C25.1939 44.4445 24 45.6384 24 47.1112V48C24 52.4184 27.5816 56 32 56C36.4184 56 40 52.4184 40 48V34.6667Z" fill="#5ED3F3"/>
</svg>
