<svg width="31" height="31" viewBox="0 0 31 31" fill="none" xmlns="http://www.w3.org/2000/svg">
<g clip-path="url(#clip0_11_5)">
<path d="M3.54199 0.308786C1.9375 0.557028 0.62363 1.71347 0.145309 3.2998C-0.00605774 3.80234 -0.00605774 4.97695 0.145309 5.47949C0.538864 6.79941 1.55 7.85898 2.83965 8.31914C3.31191 8.48867 3.42695 8.50078 4.11718 8.50078C5.15859 8.50078 5.78828 8.30097 6.59961 7.6955C7.30801 7.16875 8.01035 6.0789 8.17383 5.24336C8.2707 4.77715 8.2707 3.85078 8.17383 3.44511C8.06484 2.96074 7.67734 2.19785 7.32011 1.76797C6.7873 1.12011 5.90937 0.557028 5.14648 0.375388C4.73476 0.272458 3.95371 0.242185 3.54199 0.308786ZM5.02539 1.43496C5.89726 1.67715 6.62988 2.34922 7.02343 3.26953C7.23535 3.76601 7.26562 4.74082 7.09004 5.31601C6.68437 6.66015 5.29785 7.61679 3.97187 7.47754C2.88808 7.3625 2.03437 6.87207 1.51367 6.06074C0.962692 5.19492 0.902145 4.02031 1.35625 3.05761C2.0041 1.6832 3.50566 1.01718 5.02539 1.43496Z" fill="#5ED3F3"/>
<path d="M22.033 9.08203C20.5254 9.22734 19.0602 9.86914 18.0248 10.8379C17.7766 11.074 17.5525 11.2617 17.5344 11.2617C17.5162 11.2617 17.498 11.0619 17.498 10.8197C17.498 10.299 17.3891 10.0508 17.0561 9.78438L16.8199 9.59668H13.9016H10.9832L10.735 9.76016C10.2506 10.0811 10.293 9.14863 10.3051 20.2348L10.3232 30.1221L10.4564 30.3098C10.5352 30.4127 10.6986 30.552 10.8197 30.6125C11.0316 30.7215 11.2557 30.7275 14.0348 30.7457C15.9904 30.7578 17.0984 30.7396 17.2559 30.6973C17.5102 30.6307 17.8189 30.4006 17.94 30.1887C17.9945 30.0918 18.0187 28.6326 18.043 24.0068C18.0732 18.0854 18.0793 17.9461 18.2004 17.6131C18.8543 15.827 20.6404 15.1246 22.3539 15.9904C22.7838 16.2084 23.2924 16.6928 23.4619 17.0439C23.7586 17.6797 23.7525 17.5586 23.7889 24.0129L23.8252 30.0736L23.9947 30.2916C24.3398 30.7457 24.2187 30.7275 27.4035 30.7275H30.2492L30.4672 30.5822C30.5822 30.5035 30.7457 30.34 30.8244 30.225L30.9697 30.007L30.9879 23.0441C31.0061 15.8148 30.9939 15.4213 30.7518 14.4707C30.0736 11.7764 27.9545 9.7541 25.2602 9.20313C24.5457 9.05781 22.8867 8.99727 22.033 9.08203ZM24.3096 10.1113C25.799 10.2445 26.9736 10.7713 28.0332 11.7885C28.9475 12.6543 29.5227 13.7018 29.8314 15.0459C29.9344 15.5 29.9404 15.9602 29.9404 22.6143V29.6982H27.3975H24.8545L24.8242 23.7344C24.7879 17.8734 24.7879 17.7645 24.6607 17.3043C24.3641 16.2447 23.7828 15.5363 22.802 15.0398C20.5678 13.8955 18.043 14.9854 17.2195 17.4375C17.1105 17.7523 17.1045 18.1398 17.0742 23.7344L17.0439 29.6982L14.2103 29.7164L11.3828 29.7285V20.1621V10.5957H13.9561H16.5293L16.5353 12.2426V13.8955L17.7584 12.6482C19.1389 11.2436 19.2842 11.1225 20.0047 10.7531C21.1914 10.1477 22.5113 9.94785 24.3096 10.1113Z" fill="#5ED3F3"/>
<path d="M1.51367 9.64512C1.19882 9.74804 0.690229 10.2687 0.611519 10.5775C0.563081 10.7531 0.550972 13.5322 0.557026 20.265L0.57519 29.6982L0.756831 29.9707C1.01718 30.3521 1.38652 30.6125 1.78613 30.6973C2.01015 30.7457 2.83964 30.7578 4.34121 30.7457L6.56933 30.7275L6.90234 30.5398C7.27773 30.3279 7.59257 29.9586 7.68945 29.6195C7.72578 29.4682 7.74999 26.3318 7.74999 20.15C7.74999 11.0619 7.74999 10.8984 7.6289 10.5775C7.48964 10.2021 7.16874 9.86914 6.78124 9.69355C6.52089 9.57246 6.3998 9.5664 4.11718 9.57246C2.54296 9.57851 1.65292 9.60273 1.51367 9.64512ZM6.52089 10.741L6.69042 10.8863L6.70859 20.1076C6.7207 30.3461 6.75703 29.5408 6.31503 29.668C6.15761 29.7164 5.38867 29.7285 3.97792 29.7164L1.86484 29.6982L1.71953 29.5287L1.57421 29.3592V20.1258V10.8924L1.72558 10.7471L1.87089 10.5957H4.11113H6.35136L6.52089 10.741Z" fill="#5ED3F3"/>
</g>
<defs>
<clipPath id="clip0_11_5">
<rect width="31" height="31" fill="white"/>
</clipPath>
</defs>
</svg>
