<svg width="64" height="64" viewBox="0 0 64 64" fill="none" xmlns="http://www.w3.org/2000/svg">
<path d="M31.642 46.37C31.642 46.37 31.642 25.648 32.33 25.65C32.862 25.65 33.554 52.38 33.554 52.38C32.602 52.268 31.642 47.982 31.642 46.37ZM44.978 25.89C43.14 17.858 39.114 10.952 33.562 5.62199L33.548 5.60999C32.872 4.57799 32.254 3.39399 31.758 2.14599L31.71 2.00999C31.712 2.04999 31.712 2.09799 31.712 2.14599C31.712 3.27599 31.206 4.28599 30.408 4.96399L30.402 4.96799C23.254 11.036 18.706 19.978 18.556 29.984V30.01C18.554 30.134 18.554 30.28 18.554 30.426C18.554 40.34 23.324 49.14 30.694 54.656L30.772 54.712L30.946 54.838C31.2673 57.2167 31.542 59.6007 31.77 61.99H32.972C33.304 59.008 33.752 56.398 34.338 53.838L34.246 54.316C35.038 53.766 35.73 53.196 36.376 52.578L36.37 52.584C41.972 47.39 45.468 39.99 45.468 31.776C45.468 31.654 45.468 31.534 45.466 31.412V31.43C45.46 29.468 45.282 27.55 44.944 25.688L44.974 25.886L44.978 25.89Z" fill="#5ED3F3"/>
</svg>
