<svg width="155" height="161" viewBox="0 0 155 161" fill="none" xmlns="http://www.w3.org/2000/svg">
<path d="M74.328 127.536C69.6347 127.536 65.0267 126.427 60.504 124.208C55.9813 121.989 52.2693 118.448 49.368 113.584L56.024 107.056C58.4133 110.811 61.1867 113.627 64.344 115.504C67.5867 117.296 70.8293 118.192 74.072 118.192C80.0453 118.192 84.44 116.613 87.256 113.456C90.072 110.213 91.48 105.136 91.48 98.224V50.864H56.28V41.904H102.104V99.12C102.104 104.325 101.251 109.104 99.544 113.456C97.8373 117.723 94.936 121.136 90.84 123.696C86.8293 126.256 81.3253 127.536 74.328 127.536Z" fill="#5ED3F3"/>
<path d="M68.1348 19.084C63.3719 21.8668 59.2244 24.382 58.9836 24.7031C58.4752 25.3186 58.3949 25.9607 58.6625 26.71C58.9033 27.2986 60.2947 27.9676 60.9101 27.7803C61.1777 27.7 65.0309 25.5326 69.4726 22.9639L77.5 18.3348L105.328 34.3895L133.156 50.4441V82.5V114.556L115.175 124.911C105.275 130.637 96.9529 135.48 96.7121 135.695C96.0699 136.23 96.0699 137.942 96.7121 138.504C97.8627 139.548 98.2105 139.36 117.316 128.363C127.43 122.53 136.019 117.419 136.447 116.991L137.17 116.215V82.6338C137.17 58.7391 137.09 48.8922 136.876 48.4373C136.662 47.9557 131.818 45.0391 119.269 37.7877C109.77 32.3023 96.6051 24.7031 90.0226 20.9035C83.3867 17.0771 77.7943 14 77.4465 14.0268C77.0986 14.0268 72.9244 16.3012 68.1348 19.084Z" fill="#5ED3F3"/>
<path d="M35.8381 37.7342C23.4225 44.9053 18.3385 47.9824 18.1244 48.4373C17.9103 48.8922 17.8301 59.1404 17.8301 82.6338V116.215L18.5793 116.991C19.4891 117.954 76.7508 151 77.5268 151C78.1154 151 91.7084 143.267 92.6984 142.357C93.5547 141.581 93.5012 140.243 92.5914 139.521C92.19 139.2 91.6549 138.959 91.3605 138.959C91.0662 138.959 87.8553 140.698 84.1894 142.812L77.5268 146.665L49.6719 130.611L21.8437 114.529V82.5V50.4709L38.5139 40.8648C56.3346 30.5631 56.2275 30.6166 55.5586 29.0111C55.2643 28.2887 54.3277 27.6465 53.6053 27.6465C53.418 27.6465 45.4441 32.1953 35.8381 37.7342Z" fill="#5ED3F3"/>
</svg>
