<svg width="64" height="64" viewBox="0 0 64 64" fill="none" xmlns="http://www.w3.org/2000/svg">
<path d="M11.84 48.192C11.84 49.6427 12.4587 50.7947 13.696 51.648C14.3787 52.032 15.104 52.224 15.872 52.224C16.4694 52.224 17.0667 52.0747 17.664 51.776L49.984 35.648C50.624 35.3067 51.1574 34.816 51.584 34.176C52.0107 33.536 52.2027 32.8107 52.16 32C52.1174 31.1893 51.9254 30.4853 51.584 29.888C51.2427 29.2907 50.7094 28.8 49.984 28.416L17.664 12.288C17.0667 11.9893 16.4694 11.84 15.872 11.84C15.1467 11.84 14.4214 12.032 13.696 12.416C12.4587 13.2267 11.84 14.3787 11.84 15.872V48.192Z" fill="#5ED3F3"/>
</svg>
