<svg width="64" height="64" viewBox="0 0 64 64" fill="none" xmlns="http://www.w3.org/2000/svg">
<g clip-path="url(#clip0_25_2)">
<path d="M37.9875 0.200001C37.1875 0.4375 36.225 1.325 35.875 2.15C35.275 3.5625 35.625 5.15 36.775 6.1875C37.825 7.1375 37.7625 7.125 45.2375 7.125H51.8125L36.9125 22.025C20.4375 38.5125 21.375 37.475 21.375 39.125C21.375 41.7 24.0375 43.3875 26.375 42.3C26.975 42.025 29.0375 40.025 41.975 27.0875L56.875 12.1875V18.7625C56.875 26.2375 56.8625 26.175 57.8125 27.225C59.25 28.825 61.625 28.8125 63.0625 27.225C64.05 26.125 64.0125 26.775 63.975 13.925L63.9375 2.5625L63.6625 2.05C63.2375 1.2625 62.8375 0.837498 62.1 0.4375L61.4375 0.0625L50 0.0374985C40.35 0.0125008 38.475 0.0374985 37.9875 0.200001Z" fill="#5ED3F3"/>
<path d="M8.8125 7.2625C5.475 7.8875 2.625 10.025 1.0875 13.0875C0.899998 13.4375 0.599998 14.225 0.412498 14.8375L0.0624981 15.9375L0.0249981 35C-1.85519e-06 48.0625 0.0374981 54.3375 0.124998 54.925C0.487498 57.2625 1.4125 59.0375 3.1875 60.8125C4.9625 62.5875 6.7375 63.5125 9.075 63.875C9.6625 63.9625 15.9375 64 29 63.975L48.0625 63.9375L49.1625 63.5875C53.225 62.325 56.0125 59.175 56.7375 55.075C56.825 54.6 56.875 51.4 56.875 46.425C56.875 38.825 56.8625 38.4875 56.625 37.85C56.125 36.5125 54.7625 35.5875 53.3 35.6C51.925 35.6125 50.825 36.2875 50.15 37.5625L49.8125 38.1875L49.75 46.25L49.6875 54.3125L49.4 54.9C49.2375 55.225 48.85 55.7125 48.55 55.9875C47.4625 56.9375 48.9625 56.875 28.5 56.875C7.7 56.875 9.3625 56.9625 8.2125 55.8375C7.025 54.6875 7.125 56.5 7.125 35.5625C7.125 15.0375 7.0625 16.5375 8.0125 15.45C8.2875 15.15 8.775 14.7625 9.1 14.6L9.6875 14.3125L17.6875 14.25L25.6875 14.1875L26.3375 13.8875C28.0625 13.1125 28.8875 11 28.1375 9.3C27.7625 8.45 26.9625 7.675 26.15 7.375C25.5125 7.1375 25.1875 7.125 17.4625 7.1375C13.05 7.15 9.1625 7.2 8.8125 7.2625Z" fill="#5ED3F3"/>
</g>
<defs>
<clipPath id="clip0_25_2">
<rect width="64" height="64" fill="white"/>
</clipPath>
</defs>
</svg>
