<svg width="181" height="181" viewBox="0 0 181 181" fill="none" xmlns="http://www.w3.org/2000/svg">
<path d="M39.2402 14.176C33.0891 15.2365 28.5994 19.9383 27.0439 27.0086C26.2309 30.6851 26.4783 38.8514 27.5389 44.0127C28.9176 50.4113 31.2508 57.9766 33.7607 64.057C33.9728 64.5519 33.4779 64.7994 30.8619 65.6125C19.8322 68.9355 11.1004 73.6019 5.83301 78.9754C-1.76758 86.6467 -1.90898 95.5199 5.37344 103.439C9.40352 107.822 18.4535 112.913 27.857 116.095C30.6145 117.014 32.877 117.897 32.877 118.004C32.877 118.145 32.0992 120.549 31.1094 123.377C27.7156 133.311 26.4076 139.921 26.4076 146.886C26.443 154.168 27.9631 158.658 31.6396 162.44C36.7303 167.672 45.4621 168.45 55.1484 164.526C63.8803 160.991 74.2736 154.168 83.6064 145.825C85.374 144.234 87.0002 142.82 87.2477 142.679C87.5305 142.502 88.7678 143.351 90.7828 145.189C104.676 157.703 116.802 164.809 126.735 166.188C135.644 167.425 142.502 162.759 144.8 153.956C146.568 147.169 144.906 134.619 140.699 123.059C140.098 121.433 139.674 120.054 139.709 120.019C139.78 119.983 141.76 119.418 144.128 118.817C160.708 114.539 172.41 108.246 177.712 100.858C184.535 91.3131 180.47 80.5662 167.107 72.7535C162.228 69.9254 154.592 66.8498 146.603 64.5519C144.305 63.8803 142.361 63.2793 142.255 63.1732C142.149 63.1025 142.644 61.4764 143.315 59.6381C145.012 54.9717 146.568 49.068 147.416 44.0834C150.138 28.1398 145.047 17.6051 133.841 15.8375C123.377 14.2113 106.868 22.4836 89.6516 37.9676L86.9648 40.3715L84.667 38.3211C77.8088 32.1346 75.8645 30.4377 72.6475 27.9631C59.2492 17.5697 47.5478 12.7266 39.2402 14.176ZM48.2902 22.4482C54.5475 24.3572 63.9863 30.1549 72.1172 37.0838C76.0766 40.4422 81.3086 45.356 81.3086 45.6742C81.3086 45.8156 79.8238 47.5125 78.0562 49.4215C76.2533 51.3305 73.6727 54.1232 72.2939 55.6434L69.8193 58.4008L65.1176 58.8957C59.1785 59.4967 54.1232 60.2744 48.0781 61.4057C40.2654 62.8904 41.326 63.1732 39.8766 59.3199C36.0939 49.4215 34.3617 42.3158 34.0436 35.3162C33.8314 30.0135 34.1496 27.7863 35.5637 25.0996C37.6494 21.2463 41.5734 20.4332 48.2902 22.4482ZM135.609 24.0744C137.553 24.9935 139.073 27.0086 139.921 29.66C141.194 33.8668 140.452 43.1643 138.189 51.083C137.235 54.4414 135.008 60.9107 134.654 61.2996C134.513 61.4764 132.498 61.2996 130.023 60.8754C121.539 59.426 114.186 58.5775 106.726 58.118L102.59 57.8705L100.363 55.1838C99.1258 53.7344 96.7572 51.0123 95.0957 49.174L92.0908 45.851L94.3887 43.7299C101.459 37.2252 111.322 30.2256 117.897 27.0439C125.958 23.0846 131.649 22.1301 135.609 24.0744ZM88.485 52.9213C89.3334 53.8758 90.6414 55.2898 91.3838 56.1029L92.6918 57.623H86.6113H80.5662L83.465 54.4414C85.0559 52.6738 86.5053 51.2598 86.6467 51.2598C86.8234 51.2598 87.6365 52.0021 88.485 52.9213ZM103.297 70.9506C110.969 81.2379 118.322 92.515 117.933 93.5049C117.296 95.1664 108.741 107.221 103.686 113.585L100.398 117.721L90.9242 117.685C85.7275 117.65 79.9299 117.544 78.0562 117.403L74.6271 117.19L71.693 113.479C66.0721 106.373 55.8555 91.4898 55.8555 90.3939C55.8555 89.4041 65.8246 75.2281 71.3394 68.4053L73.602 65.5771L76.8543 65.365C78.6219 65.259 84.3135 65.1529 89.4748 65.1176L98.8783 65.0469L103.297 70.9506ZM116.66 66.4609C122.67 67.1326 131.119 68.4406 131.402 68.6881C131.755 69.0416 123.483 85.2326 122.741 85.6922C122.599 85.7629 121.609 84.4549 120.584 82.7934C118.534 79.5057 112.171 70.2082 110.085 67.4154C108.565 65.4004 107.999 65.4711 116.66 66.4609ZM62.5016 67.5922C59.4967 71.5869 56.3504 75.9705 54.1232 79.3289C52.7092 81.4146 51.4365 83.0055 51.2598 82.8641C50.5174 82.051 44.0127 69.6426 44.3309 69.6426C44.4369 69.6426 46.2398 69.2891 48.3256 68.9002C51.7547 68.2285 61.6531 66.6023 62.8904 66.4963C63.2086 66.4609 63.0672 66.8498 62.5016 67.5922ZM143.881 71.5516C158.905 75.6877 169.829 81.9803 172.692 88.1314C173.788 90.4646 173.788 92.3029 172.692 94.6361C169.652 101.247 158.34 107.398 140.77 112.029L136.775 113.09L136.492 112.312C135.679 110.262 131.366 101.53 129.245 97.641L126.877 93.2928L128.609 90.3939C131.437 85.7275 135.467 78.1623 137.341 74.0969C138.26 72.0465 139.144 70.3496 139.25 70.3496C139.391 70.3496 141.442 70.8799 143.881 71.5516ZM39.8059 77.1371C42.2805 82.051 44.6137 86.4346 46.3459 89.298L46.9822 90.3586L44.649 94.424C43.3764 96.6158 40.9018 101.282 39.2049 104.711L36.0939 110.969L32.4527 109.802C17.2162 104.923 7.42383 97.7471 7.42383 91.3838C7.42383 86.6467 12.7619 81.4853 22.3068 76.925C26.2309 75.0514 35.2455 71.7637 36.4828 71.7637C36.9424 71.7637 37.8615 73.2838 39.8059 77.1371ZM61.4057 112.241C62.9965 114.362 64.2338 116.165 64.1631 116.236C63.8096 116.625 44.3309 113.302 43.7299 112.771C43.4117 112.489 45.8156 107.469 49.2094 101.388L51.2951 97.6057L54.9363 102.979C56.916 105.949 59.8502 110.085 61.4057 112.241ZM126.028 107.539C127.867 111.251 129.351 114.362 129.281 114.398C128.962 114.751 111.075 117.12 110.756 116.872C110.721 116.837 112.241 114.751 114.115 112.206C115.988 109.696 118.569 106.055 119.842 104.181C121.114 102.307 122.281 100.787 122.422 100.752C122.564 100.752 124.19 103.792 126.028 107.539ZM46.4873 121.044C51.5072 122.104 58.6836 123.165 65.7185 123.907C68.5113 124.19 70.8092 124.437 70.8445 124.437C70.9152 124.437 72.3646 126.064 74.0969 128.043C75.8291 130.058 78.3391 132.816 79.6471 134.23C80.9904 135.644 82.0156 136.952 81.9449 137.129C81.7682 137.73 74.6271 143.81 70.5264 146.886C54.5475 158.87 41.5734 162.723 36.5889 156.89C34.5385 154.486 34.1143 152.648 34.1143 146.355C34.1143 141.972 34.291 140.134 34.9273 137.164C35.8465 132.957 37.6848 126.841 39.3109 122.635C40.3361 119.912 40.4422 119.771 41.326 119.983C41.8209 120.089 44.1541 120.549 46.4873 121.044ZM134.265 127.336C136.528 134.371 137.376 138.189 137.942 143.739C138.295 147.451 138.295 148.406 137.765 150.951C136.669 156.537 134.23 158.87 129.563 158.87C128.22 158.87 126.311 158.658 125.321 158.41C117.403 156.254 106.408 149.325 96.2623 140.063L92.9746 137.093L97.1814 132.568C99.4793 130.058 101.954 127.301 102.696 126.453L104.04 124.862L106.903 124.65C115.211 123.978 130.341 122.175 130.765 121.751C130.836 121.68 131.26 121.609 131.685 121.609C132.356 121.609 132.639 122.281 134.265 127.336ZM93.2928 125.746C93.0453 126.099 91.6666 127.584 90.2172 129.069L87.6012 131.791L84.8791 128.962C83.3943 127.407 82.051 125.922 81.9096 125.639C81.6621 125.215 82.6166 125.145 87.7072 125.145C93.4342 125.145 93.7523 125.18 93.2928 125.746Z" fill="#5ED3F3"/>
<path d="M86.3992 77.5967C83.96 78.3744 82.2631 79.3996 80.4248 81.2379C76.0059 85.6568 74.9807 91.9848 77.7381 97.7117C78.3037 98.8783 79.1875 100.292 79.6471 100.823C86.6113 108.423 98.949 106.797 103.262 97.7117C107.221 89.4748 103.156 80.2127 94.424 77.5613C92.4443 76.9603 88.3436 76.9603 86.3992 77.5967Z" fill="#5ED3F3"/>
</svg>
