<svg width="64" height="64" viewBox="0 0 64 64" fill="none" xmlns="http://www.w3.org/2000/svg">
<path d="M17.525 0.199999C16.2 0.512499 15.0125 1.5 14.3875 2.8125L14 3.625V32.0625V60.5L14.3875 61.3125C14.875 62.35 15.65 63.125 16.6875 63.6125L17.5 64H32.0625H46.625L47.4375 63.6125C48.475 63.125 49.25 62.35 49.7375 61.3125L50.125 60.5V32.0625V3.625L49.7375 2.8125C49.25 1.775 48.475 0.999999 47.4375 0.512499L46.625 0.124999L32.3125 0.099999C24.2375 0.087499 17.8 0.137499 17.525 0.199999ZM39.0625 3.125C39.15 3.2375 39.25 3.5875 39.275 3.9125C39.325 4.3875 39.2875 4.575 39.0625 4.8375L38.8 5.1875H32.125C25.75 5.1875 25.45 5.175 25.175 4.95C24.925 4.75 24.875 4.5875 24.875 4.025C24.875 2.85 24.2875 2.9375 32.0625 2.9375C38.0625 2.9375 38.925 2.9625 39.0625 3.125ZM46.6875 28.625V49.3125H32.0625H17.4375V28.625V7.9375H32.0625H46.6875V28.625ZM33.4125 53.8875C34.85 54.6 35.4125 56.3625 34.675 57.825C33.6125 59.95 30.5125 59.95 29.45 57.825C28.45 55.85 29.8625 53.5625 32.0625 53.5625C32.5625 53.5625 32.95 53.65 33.4125 53.8875Z" fill="#5ED3F3"/>
<path d="M24.0703 16.193C23.1187 16.357 22.4242 17.0844 22.1836 18.1781C22.0578 18.7469 22.0961 20.0102 22.2601 20.8086C22.4734 21.7984 22.8344 22.9688 23.2226 23.9094C23.2555 23.9859 23.1789 24.0242 22.7742 24.15C21.068 24.6641 19.7172 25.3859 18.9023 26.2172C17.7265 27.4039 17.7047 28.7766 18.8312 30.0016C19.4547 30.6797 20.8547 31.4672 22.3094 31.9594C22.7359 32.1016 23.0859 32.2383 23.0859 32.2547C23.0859 32.2766 22.9656 32.6484 22.8125 33.0859C22.2875 34.6227 22.0851 35.6453 22.0851 36.7227C22.0906 37.8492 22.3258 38.5438 22.8945 39.1289C23.682 39.9383 25.0328 40.0586 26.5312 39.4516C27.882 38.9047 29.4898 37.8492 30.9336 36.5586C31.207 36.3125 31.4586 36.0938 31.4969 36.0719C31.5406 36.0445 31.732 36.1758 32.0437 36.4602C34.193 38.3961 36.0687 39.4953 37.6055 39.7086C38.9836 39.9 40.0445 39.1781 40.4 37.8164C40.6734 36.7664 40.4164 34.825 39.7656 33.0367C39.6726 32.7852 39.607 32.5719 39.6125 32.5664C39.6234 32.5609 39.9297 32.4734 40.2961 32.3805C42.8609 31.7188 44.6711 30.7453 45.4914 29.6023C46.5469 28.1258 45.918 26.4633 43.8508 25.2547C43.0961 24.8172 41.9148 24.3414 40.6789 23.9859C40.3234 23.882 40.0226 23.7891 40.0062 23.7727C39.9898 23.7617 40.0664 23.5102 40.1703 23.2258C40.4328 22.5039 40.6734 21.5906 40.8047 20.8195C41.2258 18.3531 40.4383 16.7234 38.7047 16.45C37.0859 16.1984 34.532 17.4781 31.8687 19.8734L31.4531 20.2453L31.0976 19.9281C30.0367 18.9711 29.7359 18.7086 29.2383 18.3258C27.1656 16.718 25.3555 15.9688 24.0703 16.193ZM25.4703 17.4727C26.4383 17.768 27.8984 18.6648 29.1562 19.7367C29.7687 20.2563 30.5781 21.0164 30.5781 21.0656C30.5781 21.0875 30.3484 21.35 30.075 21.6453C29.7961 21.9406 29.3969 22.3727 29.1836 22.6078L28.8008 23.0344L28.0734 23.1109C27.1547 23.2039 26.3726 23.3242 25.4375 23.4992C24.2289 23.7289 24.393 23.7727 24.1687 23.1766C23.5836 21.6453 23.3156 20.5461 23.2664 19.4633C23.2336 18.643 23.2828 18.2984 23.5015 17.8828C23.8242 17.2867 24.4312 17.1609 25.4703 17.4727ZM38.9781 17.7242C39.2789 17.8664 39.514 18.1781 39.6453 18.5883C39.8422 19.2391 39.7273 20.6773 39.3773 21.9023C39.2297 22.4219 38.8851 23.4227 38.8305 23.4828C38.8086 23.5102 38.4969 23.4828 38.114 23.4172C36.8015 23.193 35.664 23.0617 34.5101 22.9906L33.8703 22.9523L33.5258 22.5367C33.3344 22.3125 32.968 21.8914 32.7109 21.607L32.2461 21.093L32.6015 20.7648C33.6953 19.7586 35.2211 18.6758 36.2383 18.1836C37.4851 17.5711 38.3656 17.4234 38.9781 17.7242ZM31.6883 22.1867C31.8195 22.3344 32.0219 22.5531 32.1367 22.6789L32.339 22.9141H31.3984H30.4633L30.9117 22.4219C31.1578 22.1484 31.382 21.9297 31.4039 21.9297C31.4312 21.9297 31.557 22.0445 31.6883 22.1867ZM33.9797 24.9758C35.1664 26.5672 36.3039 28.3117 36.2437 28.4648C36.1453 28.7219 34.8219 30.5867 34.0398 31.5711L33.5312 32.2109L32.0656 32.2055C31.2617 32.2 30.3648 32.1836 30.075 32.1617L29.5445 32.1289L29.0906 31.5547C28.2211 30.4555 26.6406 28.1531 26.6406 27.9836C26.6406 27.8305 28.1828 25.6375 29.0359 24.582L29.3859 24.1445L29.889 24.1117C30.1625 24.0953 31.043 24.0789 31.8414 24.0734L33.2961 24.0625L33.9797 24.9758ZM36.0469 24.2813C36.9765 24.3852 38.2836 24.5875 38.3273 24.6258C38.382 24.6805 37.1023 27.1852 36.9875 27.2563C36.9656 27.2672 36.8125 27.0648 36.6539 26.8078C36.3367 26.2992 35.3523 24.8609 35.0297 24.4289C34.7945 24.1172 34.707 24.1281 36.0469 24.2813ZM27.6687 24.4563C27.2039 25.0742 26.7172 25.7523 26.3726 26.2719C26.1539 26.5945 25.957 26.8406 25.9297 26.8188C25.8148 26.693 24.8086 24.7734 24.8578 24.7734C24.8742 24.7734 25.1531 24.7188 25.4758 24.6586C26.0062 24.5547 27.5375 24.3031 27.7289 24.2867C27.7781 24.2813 27.7562 24.3414 27.6687 24.4563ZM40.2578 25.0688C42.582 25.7086 44.2719 26.682 44.7148 27.6336C44.8844 27.9945 44.8844 28.2789 44.7148 28.6398C44.2445 29.6625 42.4945 30.6141 39.7765 31.3305L39.1586 31.4945L39.1148 31.3742C38.989 31.057 38.3219 29.7063 37.9937 29.1047L37.6273 28.432L37.8953 27.9836C38.3328 27.2617 38.9562 26.0914 39.2461 25.4625C39.3883 25.1453 39.525 24.8828 39.5414 24.8828C39.5633 24.8828 39.8805 24.9648 40.2578 25.0688ZM24.1578 25.9328C24.5406 26.693 24.9015 27.3711 25.1695 27.8141L25.268 27.9781L24.907 28.607C24.7101 28.9461 24.3273 29.668 24.0648 30.1984L23.5836 31.1664L23.0203 30.9859C20.6633 30.2313 19.1484 29.1211 19.1484 28.1367C19.1484 27.4039 19.9742 26.6055 21.4508 25.9C22.0578 25.6102 23.4523 25.1016 23.6437 25.1016C23.7148 25.1016 23.857 25.3367 24.1578 25.9328ZM27.4992 31.3633C27.7453 31.6914 27.9367 31.9703 27.9258 31.9813C27.8711 32.0414 24.8578 31.5273 24.7648 31.4453C24.7156 31.4016 25.0875 30.625 25.6125 29.6844L25.9351 29.0992L26.4984 29.9305C26.8047 30.3898 27.2586 31.0297 27.4992 31.3633ZM37.4961 30.6359C37.7805 31.2102 38.0101 31.6914 37.9992 31.6969C37.95 31.7516 35.1828 32.118 35.1336 32.0797C35.1281 32.0742 35.3633 31.7516 35.6531 31.3578C35.943 30.9695 36.3422 30.4063 36.539 30.1164C36.7359 29.8266 36.9164 29.5914 36.9383 29.5859C36.9601 29.5859 37.2117 30.0563 37.4961 30.6359ZM25.1914 32.725C25.968 32.8891 27.0781 33.0531 28.1664 33.168C28.5984 33.2117 28.9539 33.25 28.9594 33.25C28.9703 33.25 29.1945 33.5016 29.4625 33.8078C29.7305 34.1195 30.1187 34.5461 30.3211 34.7648C30.5289 34.9836 30.6875 35.1859 30.6765 35.2133C30.6492 35.3063 29.5445 36.2469 28.9101 36.7227C26.4383 38.5766 24.4312 39.1727 23.6601 38.2703C23.343 37.8984 23.2773 37.6141 23.2773 36.6406C23.2773 35.9625 23.3047 35.6781 23.4031 35.2188C23.5453 34.568 23.8297 33.6219 24.0812 32.9711C24.2398 32.55 24.2562 32.5281 24.393 32.5609C24.4695 32.5773 24.8305 32.6484 25.1914 32.725ZM38.7703 33.6984C39.1203 34.7867 39.2515 35.3773 39.339 36.2359C39.3937 36.8102 39.3937 36.9578 39.3117 37.3516C39.1422 38.2156 38.7648 38.5766 38.043 38.5766C37.8351 38.5766 37.5398 38.5438 37.3867 38.5055C36.1617 38.1719 34.4609 37.1 32.8914 35.6672L32.3828 35.2078L33.0336 34.5078C33.389 34.1195 33.7719 33.693 33.8867 33.5617L34.0945 33.3156L34.5375 33.2828C35.8226 33.1789 38.1633 32.9 38.2289 32.8344C38.2398 32.8234 38.3055 32.8125 38.3711 32.8125C38.475 32.8125 38.5187 32.9164 38.7703 33.6984ZM32.432 33.4523C32.3937 33.507 32.1805 33.7367 31.9562 33.9664L31.5515 34.3875L31.1305 33.95C30.9008 33.7094 30.693 33.4797 30.6711 33.4359C30.6328 33.3703 30.7805 33.3594 31.568 33.3594C32.4539 33.3594 32.5031 33.3648 32.432 33.4523Z" fill="#5ED3F3"/>
<path d="M31.3656 26.0039C30.9883 26.1242 30.7258 26.2828 30.4414 26.5672C29.7578 27.2508 29.5992 28.2297 30.0258 29.1156C30.1133 29.2961 30.25 29.5148 30.3211 29.5969C31.3984 30.7727 33.307 30.5211 33.9742 29.1156C34.5867 27.8414 33.9578 26.4086 32.607 25.9984C32.3008 25.9055 31.6664 25.9055 31.3656 26.0039Z" fill="#5ED3F3"/>
</svg>
