<svg width="64" height="64" viewBox="0 0 64 64" fill="none" xmlns="http://www.w3.org/2000/svg">
<path d="M13.875 5.0125C11.7 5.3875 10.1125 7.05 9.56251 9.55C9.27501 10.85 9.36251 13.7375 9.73751 15.5625C10.225 17.825 11.05 20.5 11.9375 22.65C12.0125 22.825 11.8375 22.9125 10.9125 23.2C7.01251 24.375 3.92501 26.025 2.06251 27.925C-0.624989 30.6375 -0.674989 33.775 1.90001 36.575C3.32501 38.125 6.52501 39.925 9.85001 41.05C10.825 41.375 11.625 41.6875 11.625 41.725C11.625 41.775 11.35 42.625 11 43.625C9.80001 47.1375 9.33751 49.475 9.33751 51.9375C9.35001 54.5125 9.88751 56.1 11.1875 57.4375C12.9875 59.2875 16.075 59.5625 19.5 58.175C22.5875 56.925 26.2625 54.5125 29.5625 51.5625C30.1875 51 30.7625 50.5 30.85 50.45C30.95 50.3875 31.3875 50.6875 32.1 51.3375C37.0125 55.7625 41.3 58.275 44.8125 58.7625C47.9625 59.2 50.3875 57.55 51.2 54.4375C51.825 52.0375 51.2375 47.6 49.75 43.5125C49.5375 42.9375 49.3875 42.45 49.4 42.4375C49.425 42.425 50.125 42.225 50.9625 42.0125C56.825 40.5 60.9625 38.275 62.8375 35.6625C65.25 32.2875 63.8125 28.4875 59.0875 25.725C57.3625 24.725 54.6625 23.6375 51.8375 22.825C51.025 22.5875 50.3375 22.375 50.3 22.3375C50.2625 22.3125 50.4375 21.7375 50.675 21.0875C51.275 19.4375 51.825 17.35 52.125 15.5875C53.0875 9.95 51.2875 6.225 47.325 5.6C43.625 5.025 37.7875 7.95 31.7 13.425L30.75 14.275L29.9375 13.55C27.5125 11.3625 26.825 10.7625 25.6875 9.8875C20.95 6.2125 16.8125 4.5 13.875 5.0125ZM17.075 7.9375C19.2875 8.6125 22.625 10.6625 25.5 13.1125C26.9 14.3 28.75 16.0375 28.75 16.15C28.75 16.2 28.225 16.8 27.6 17.475C26.9625 18.15 26.05 19.1375 25.5625 19.675L24.6875 20.65L23.025 20.825C20.925 21.0375 19.1375 21.3125 17 21.7125C14.2375 22.2375 14.6125 22.3375 14.1 20.975C12.7625 17.475 12.15 14.9625 12.0375 12.4875C11.9625 10.6125 12.075 9.825 12.575 8.875C13.3125 7.5125 14.7 7.225 17.075 7.9375ZM47.95 8.5125C48.6375 8.8375 49.175 9.55 49.475 10.4875C49.925 11.975 49.6625 15.2625 48.8625 18.0625C48.525 19.25 47.7375 21.5375 47.6125 21.675C47.5625 21.7375 46.85 21.675 45.975 21.525C42.975 21.0125 40.375 20.7125 37.7375 20.55L36.275 20.4625L35.4875 19.5125C35.05 19 34.2125 18.0375 33.625 17.3875L32.5625 16.2125L33.375 15.4625C35.875 13.1625 39.3625 10.6875 41.6875 9.5625C44.5375 8.1625 46.55 7.825 47.95 8.5125ZM31.2875 18.7125C31.5875 19.05 32.05 19.55 32.3125 19.8375L32.775 20.375H30.625H28.4875L29.5125 19.25C30.075 18.625 30.5875 18.125 30.6375 18.125C30.7 18.125 30.9875 18.3875 31.2875 18.7125ZM36.525 25.0875C39.2375 28.725 41.8375 32.7125 41.7 33.0625C41.475 33.65 38.45 37.9125 36.6625 40.1625L35.5 41.625L32.15 41.6125C30.3125 41.6 28.2625 41.5625 27.6 41.5125L26.3875 41.4375L25.35 40.125C23.3625 37.6125 19.75 32.35 19.75 31.9625C19.75 31.6125 23.275 26.6 25.225 24.1875L26.025 23.1875L27.175 23.1125C27.8 23.075 29.8125 23.0375 31.6375 23.025L34.9625 23L36.525 25.0875ZM41.25 23.5C43.375 23.7375 46.3625 24.2 46.4625 24.2875C46.5875 24.4125 43.6625 30.1375 43.4 30.3C43.35 30.325 43 29.8625 42.6375 29.275C41.9125 28.1125 39.6625 24.825 38.925 23.8375C38.3875 23.125 38.1875 23.15 41.25 23.5ZM22.1 23.9C21.0375 25.3125 19.925 26.8625 19.1375 28.05C18.6375 28.7875 18.1875 29.35 18.125 29.3C17.8625 29.0125 15.5625 24.625 15.675 24.625C15.7125 24.625 16.35 24.5 17.0875 24.3625C18.3 24.125 21.8 23.55 22.2375 23.5125C22.35 23.5 22.3 23.6375 22.1 23.9ZM50.875 25.3C56.1875 26.7625 60.05 28.9875 61.0625 31.1625C61.45 31.9875 61.45 32.6375 61.0625 33.4625C59.9875 35.8 55.9875 37.975 49.775 39.6125L48.3625 39.9875L48.2625 39.7125C47.975 38.9875 46.45 35.9 45.7 34.525L44.8625 32.9875L45.475 31.9625C46.475 30.3125 47.9 27.6375 48.5625 26.2C48.8875 25.475 49.2 24.875 49.2375 24.875C49.2875 24.875 50.0125 25.0625 50.875 25.3ZM14.075 27.275C14.95 29.0125 15.775 30.5625 16.3875 31.575L16.6125 31.95L15.7875 33.3875C15.3375 34.1625 14.4625 35.8125 13.8625 37.025L12.7625 39.2375L11.475 38.825C6.08751 37.1 2.62501 34.5625 2.62501 32.3125C2.62501 30.6375 4.51251 28.8125 7.88751 27.2C9.27501 26.5375 12.4625 25.375 12.9 25.375C13.0625 25.375 13.3875 25.9125 14.075 27.275ZM21.7125 39.6875C22.275 40.4375 22.7125 41.075 22.6875 41.1C22.5625 41.2375 15.675 40.0625 15.4625 39.875C15.35 39.775 16.2 38 17.4 35.85L18.1375 34.5125L19.425 36.4125C20.125 37.4625 21.1625 38.925 21.7125 39.6875ZM44.5625 38.025C45.2125 39.3375 45.7375 40.4375 45.7125 40.45C45.6 40.575 39.275 41.4125 39.1625 41.325C39.15 41.3125 39.6875 40.575 40.35 39.675C41.0125 38.7875 41.925 37.5 42.375 36.8375C42.825 36.175 43.2375 35.6375 43.2875 35.625C43.3375 35.625 43.9125 36.7 44.5625 38.025ZM16.4375 42.8C18.2125 43.175 20.75 43.55 23.2375 43.8125C24.225 43.9125 25.0375 44 25.05 44C25.075 44 25.5875 44.575 26.2 45.275C26.8125 45.9875 27.7 46.9625 28.1625 47.4625C28.6375 47.9625 29 48.425 28.975 48.4875C28.9125 48.7 26.3875 50.85 24.9375 51.9375C19.2875 56.175 14.7 57.5375 12.9375 55.475C12.2125 54.625 12.0625 53.975 12.0625 51.75C12.0625 50.2 12.125 49.55 12.35 48.5C12.675 47.0125 13.325 44.85 13.9 43.3625C14.2625 42.4 14.3 42.35 14.6125 42.425C14.7875 42.4625 15.6125 42.625 16.4375 42.8ZM47.475 45.025C48.275 47.5125 48.575 48.8625 48.775 50.825C48.9 52.1375 48.9 52.475 48.7125 53.375C48.325 55.35 47.4625 56.175 45.8125 56.175C45.3375 56.175 44.6625 56.1 44.3125 56.0125C41.5125 55.25 37.625 52.8 34.0375 49.525L32.875 48.475L34.3625 46.875C35.175 45.9875 36.05 45.0125 36.3125 44.7125L36.7875 44.15L37.8 44.075C40.7375 43.8375 46.0875 43.2 46.2375 43.05C46.2625 43.025 46.4125 43 46.5625 43C46.8 43 46.9 43.2375 47.475 45.025ZM32.9875 44.4625C32.9 44.5875 32.4125 45.1125 31.9 45.6375L30.975 46.6L30.0125 45.6C29.4875 45.05 29.0125 44.525 28.9625 44.425C28.875 44.275 29.2125 44.25 31.0125 44.25C33.0375 44.25 33.15 44.2625 32.9875 44.4625Z" fill="#5ED3F3"/>
<path d="M30.55 27.4375C29.6875 27.7125 29.0875 28.075 28.4375 28.725C26.875 30.2875 26.5125 32.525 27.4875 34.55C27.6875 34.9625 28 35.4625 28.1625 35.65C30.625 38.3375 34.9875 37.7625 36.5125 34.55C37.9125 31.6375 36.475 28.3625 33.3875 27.425C32.6875 27.2125 31.2375 27.2125 30.55 27.4375Z" fill="#5ED3F3"/>
</svg>
