<svg width="64" height="64" viewBox="0 0 64 64" fill="none" xmlns="http://www.w3.org/2000/svg">
<g clip-path="url(#clip0_18_26837)">
<path fill-rule="evenodd" clip-rule="evenodd" d="M53.196 5.63064C59.3626 5.63064 60.0591 12.6254 60.0591 12.6254C60.4657 15.0386 60.1796 19.1421 59.02 22.7563C55.9819 32.1643 48.4714 49.0904 45.5612 55.5356C44.0139 57.0678 42.2332 57.3313 41.1979 57.3313C40.6709 57.3313 40.3396 57.2598 40.3396 57.2598L33.3297 38.5455L25.3034 57.3163C22.269 57.241 20.5109 55.4113 20.5109 55.4113L8.54285 17.8546C8.54285 17.8546 8.07602 15.9911 5.40308 15.9911H3.76542L4.85342 13.16H20.1382V15.9911C20.1382 15.9911 18.621 17.2146 18.9786 18.9088C19.3363 20.5991 25.4539 45.0057 25.4539 45.0057L31.3532 31.9459L28.6163 23.3097C27.5659 20.6556 26.7038 18.0993 26.0149 17.4179C25.0436 16.3676 23.2779 15.9911 23.2779 15.9911V13.16H42.1128V15.9911H38.9993C38.9993 15.9911 37.3579 16.3224 37.2149 18.7317C37.1848 19.2174 37.4633 20.904 37.4633 20.904L44.7707 44.9303C44.7707 44.9303 52.2812 31.1478 52.3904 28.1435C52.4996 25.1468 51.3363 20.2414 48.0572 18.28C42.813 15.1214 44.1306 8.83434 48.1815 6.61317C49.9095 5.66824 51.4455 5.63061 53.196 5.63061V5.63064ZM43.5735 19.4621C44.2888 20.2339 45.1433 20.9191 46.1146 21.5026C47.7071 22.4551 48.7123 25.6927 48.6257 28.008C48.4902 28.9003 47.2817 31.656 45.6779 34.9614L41.1377 20.0381C41.1264 19.9591 41.1113 19.8612 41.0925 19.7558H42.1127C42.6322 19.7558 43.1254 19.6504 43.5734 19.4621H43.5735ZM23.0821 19.8913C23.1273 19.9139 23.1725 19.9365 23.2101 19.9591C23.4059 20.3286 23.7019 21.056 23.9978 21.8104L24.0251 21.8801C24.0524 21.9499 24.0797 22.0198 24.1069 22.0896L24.134 22.1593C24.2469 22.4497 24.3575 22.7365 24.46 23.001L25.0624 24.5596L27.3325 31.7087L26.4779 33.5911C25.0775 27.9817 23.741 22.6057 23.0822 19.8913H23.0821ZM63.7899 12.121C63.3833 8.49557 60.6803 1.86591 53.196 1.86591C51.4304 1.86591 49.0097 1.86591 46.3706 3.31157C43.9951 4.61791 42.2069 6.84664 41.3673 9.39534H23.2779C22.7208 9.39534 22.1862 9.51581 21.708 9.73791C21.2299 9.51581 20.7029 9.39534 20.1382 9.39534H4.85345C3.29485 9.39534 1.90192 10.3553 1.33722 11.8085L0.249217 14.6396C-0.195017 15.7953 -0.0406833 17.1017 0.663317 18.1219C1.36355 19.1459 2.52685 19.7558 3.76545 19.7558H5.19978L16.9231 56.5558C17.1 57.1055 17.3975 57.6061 17.7928 58.0203C18.0826 58.3214 20.7518 60.968 25.213 61.081H25.3033C26.8092 61.081 28.172 60.185 28.7669 58.7958L33.1 48.665L36.812 58.5812C37.2676 59.7934 38.3142 60.6857 39.5754 60.9492C39.7899 60.9906 40.3735 61.096 41.1979 61.096C43.8445 61.096 46.3368 60.0683 48.2116 58.2085C48.5391 57.8847 48.8064 57.5007 48.9909 57.0828C52.0591 50.2876 59.5245 33.448 62.604 23.9158C63.8351 20.0758 64.3095 15.3624 63.7899 12.121" fill="#5ED3F3"/>
</g>
<defs>
<clipPath id="clip0_18_26837">
<rect width="64" height="64" fill="white"/>
</clipPath>
</defs>
</svg>
